<?xml version="1.0" encoding="utf-8"?>
<!-- Generator: Adobe Illustrator 16.0.4, SVG Export Plug-In . SVG Version: 6.00 Build 0)  -->
<!DOCTYPE svg PUBLIC "-//W3C//DTD SVG 1.1//EN" "http://www.w3.org/Graphics/SVG/1.1/DTD/svg11.dtd">
<svg version="1.1" id="Layer_1" xmlns="http://www.w3.org/2000/svg" xmlns:xlink="http://www.w3.org/1999/xlink" x="0px" y="0px"
	 width="288px" height="144px" viewBox="0 0 288 144" enable-background="new 0 0 288 144" xml:space="preserve">
<ellipse fill="#58C6D4" cx="144.474" cy="70.172" rx="132.051" ry="31.57"/>
<g>
	
		<ellipse transform="matrix(0.9779 0.2091 -0.2091 0.9779 17.0345 -41.3297)" fill="#CF1970" cx="204.027" cy="59.917" rx="14.624" ry="9.125"/>
	<polygon fill="#CF1970" points="195.276,56.019 186.179,44.623 176.974,57.712 194.785,58.316 	"/>
</g>
<rect x="66.435" y="62.319" fill="none" width="155.129" height="21.795"/>
<path fill="#C3E7F0" d="M273.5,70.525c0-1.015-0.509-1.837-1.135-1.837H16.136c-0.627,0-1.136,0.822-1.136,1.837l0,0
	c0,1.014,0.509,1.836,1.136,1.836h256.229C272.991,72.362,273.5,71.54,273.5,70.525L273.5,70.525z"/>
<path fill="#3553A4" d="M277.525,70.172c0,4.254-3.448,7.703-7.703,7.703h-28.011c-4.255,0-7.703-3.449-7.703-7.703l0,0
	c0-4.254,3.448-7.703,7.703-7.703h28.011C274.077,62.469,277.525,65.917,277.525,70.172L277.525,70.172z"/>
<g>
	<ellipse fill="#FFCD45" cx="109.739" cy="57.545" rx="14.625" ry="9.125"/>
	<polygon fill="#FFCD45" points="100.366,55.562 89.088,46.32 82.822,61.045 100.366,57.912 	"/>
</g>
<path fill="#3553A4" d="M129.465,70.021c0,4.254-3.448,7.703-7.703,7.703H93.751c-4.254,0-7.703-3.449-7.703-7.703l0,0
	c0-4.254,3.449-7.703,7.703-7.703h28.011C126.017,62.318,129.465,65.767,129.465,70.021L129.465,70.021z"/>
<path fill="#3553A4" d="M203.857,70.172c0,4.254-3.448,7.703-7.703,7.703h-28.011c-4.254,0-7.703-3.449-7.703-7.703l0,0
	c0-4.254,3.449-7.703,7.703-7.703h28.011C200.409,62.469,203.857,65.917,203.857,70.172L203.857,70.172z"/>
<g>
	
		<ellipse transform="matrix(0.9317 -0.3632 0.3632 0.9317 -18.6434 20.3372)" fill="#F57E32" cx="44.764" cy="59.75" rx="9.884" ry="6.167"/>
	<polygon fill="#F57E32" points="38.375,60.802 29.004,57.75 28.673,68.561 38.952,62.281 	"/>
</g>
<path fill="#3553A4" d="M54.84,70.172c0,4.254-3.449,7.703-7.703,7.703H19.126c-4.254,0-7.703-3.449-7.703-7.703l0,0
	c0-4.254,3.449-7.703,7.703-7.703h28.011C51.392,62.469,54.84,65.917,54.84,70.172L54.84,70.172z"/>
<circle fill="#FFFFFF" cx="48.133" cy="56.495" r="1.48"/>
<circle fill="#FFFFFF" cx="121.598" cy="54.613" r="1.882"/>
<circle fill="#FFFFFF" cx="203.858" cy="56.495" r="1.882"/>
<g>
	<g>
		
			<ellipse transform="matrix(0.9902 0.1396 -0.1396 0.9902 13.4575 -19.7465)" fill="#7E52A1" cx="147.495" cy="86.061" rx="16.703" ry="10.422"/>
		<polygon fill="#7E52A1" points="137.211,82.325 125.931,70.074 116.497,85.729 136.837,84.982 		"/>
	</g>
	<circle fill="#FFFFFF" cx="157.636" cy="84.753" r="2.149"/>
</g>
</svg>
